<svg width="20" height="20" viewBox="0 0 20 20" fill="none" xmlns="http://www.w3.org/2000/svg">
<rect x="1.38281" width="4.04255" height="20" fill="#666666"/>
<rect x="7.34033" y="2.34033" width="4.04255" height="17.6596" fill="#666666"/>
<path d="M0.614009 16.1649L0 16.2766C0.849144 16.3473 1.70309 16.3373 2.55033 16.2465L2.90675 16.2083C3.80441 16.1121 4.69311 15.9455 5.56463 15.7099L5.82011 15.6409C7.39544 15.2151 8.91452 14.6035 10.3453 13.8188L11.4894 13.1915L15.6383 20H20L14.3617 10.9574L16.8085 8.51062L18.1915 9.68083L18.8298 3.29785L13.0851 5.74466L14.6809 6.91487L12.1277 9.68083L8.82979 12.4468L6.94581 13.6623C6.0054 14.269 5.00874 14.7837 3.96964 15.1994C2.88624 15.6327 1.76205 15.9562 0.614009 16.1649Z" fill="#666666"/>
</svg>
