<svg width="32" height="33" viewBox="0 0 32 33" fill="none" xmlns="http://www.w3.org/2000/svg">
<rect x="2.21289" y="0.5" width="6.46809" height="32" fill="#434242"/>
<rect x="11.7446" y="4.24463" width="6.46809" height="28.2553" fill="#434242"/>
<path d="M0.982415 26.3637L0 26.5423C1.35863 26.6555 2.72494 26.6394 4.08052 26.4942L4.6508 26.4331C6.08705 26.2792 7.50897 26.0126 8.90341 25.6357L9.31218 25.5252C11.8327 24.844 14.2632 23.8654 16.5526 22.6099L18.383 21.6062L25.0213 32.4998H32L22.9787 18.0317L26.8936 14.1168L29.1064 15.9891L30.1277 5.77637L20.9362 9.69126L23.4894 11.5636L19.4043 15.9891L14.1277 20.4147L11.1133 22.3594C9.60864 23.3302 8.01399 24.1537 6.35143 24.8188C4.61798 25.5122 2.81929 26.0297 0.982415 26.3637Z" fill="url(#paint0_linear_101_1480)"/>
<defs>
<linearGradient id="paint0_linear_101_1480" x1="30.4681" y1="5.60615" x2="1.53192" y2="29.9466" gradientUnits="userSpaceOnUse">
<stop stop-color="#FB9600"/>
<stop offset="1" stop-color="#FFDC3E"/>
</linearGradient>
</defs>
</svg>
